<svg xmlns="http://www.w3.org/2000/svg" width="17" height="20" viewBox="0 0 17 20">
    <g fill="#FFF" fill-rule="nonzero">
        <path d="M8.397 7.534c.163 0 .296.133.296.296v6.692a.297.297 0 0 1-.593 0V7.83c0-.163.133-.296.297-.296z"/>
        <path d="M5.838 11.667c.076 0 .152.03.21.087l2.349 2.349 2.348-2.35a.297.297 0 0 1 .42.42l-2.559 2.56a.297.297 0 0 1-.42 0l-2.558-2.56a.297.297 0 0 1 .21-.506z"/>
        <g>
            <path d="M14.582 19.752H1.61A1.485 1.485 0 0 1 .128 18.27V1.483C.128.665.793 0 1.61 0h9.42a.297.297 0 0 1 0 .593H1.61c-.49 0-.89.4-.89.89V18.27c0 .49.4.89.89.89h12.97c.492 0 .89-.4.89-.89V5.164a.297.297 0 0 1 .594 0V18.27c0 .817-.665 1.482-1.483 1.482z"/>
            <path d="M15.768 5.46H11.03a.297.297 0 0 1-.296-.296V.425a.297.297 0 0 1 .593 0v4.442h4.441a.297.297 0 0 1 0 .594z"/>
            <path d="M15.768 5.46a.297.297 0 0 1-.212-.089L10.818.504a.297.297 0 0 1 .425-.413l4.738 4.867a.297.297 0 0 1-.213.503z"/>
        </g>
    </g>
</svg>