<svg xmlns="http://www.w3.org/2000/svg" width="22" height="23" viewBox="0 0 22 23"><g fill="#1B006D"><path d="M11.862 8.558H9.406V5.99a.419.419 0 0 0-.409-.428.419.419 0 0 0-.41.428v2.567H6.133a.419.419 0 0 0-.41.428.42.42 0 0 0 .41.428h2.456v2.567c0 .236.183.428.409.428a.42.42 0 0 0 .41-.428V9.414h2.455a.42.42 0 0 0 .41-.428.419.419 0 0 0-.41-.428z"/><path d="M21.161 21.94l-6.081-6.613a9.167 9.167 0 0 0 2.512-6.341C17.592 4.03 13.736 0 8.997 0 4.257 0 .402 4.03.402 8.986c0 4.955 3.856 8.986 8.595 8.986 2.08 0 3.99-.778 5.478-2.068l6.096 6.629a.398.398 0 0 0 .579.012.442.442 0 0 0 .011-.605zM1.221 8.986c0-4.483 3.488-8.13 7.776-8.13s7.776 3.647 7.776 8.13c0 4.483-3.488 8.13-7.776 8.13s-7.776-3.647-7.776-8.13z"/></g></svg>