<?xml version="1.0" encoding="UTF-8"?>
<svg width="1659px" height="762px" viewBox="0 0 1659 762" version="1.1" xmlns="http://www.w3.org/2000/svg" xmlns:xlink="http://www.w3.org/1999/xlink">
    <!-- Generator: sketchtool 45.2 (43514) - http://www.bohemiancoding.com/sketch -->
    <title>CB89154B-55E4-4E96-8C70-950CDB040EB6</title>
    <desc>Created with sketchtool.</desc>
    <defs/>
    <g id="pages" stroke="none" stroke-width="1" fill="none" fill-rule="evenodd" opacity="0.215636322">
        <g id="mainpage_1900" transform="translate(-83.000000, -1933.000000)" fill="#FFFFFF">
            <g id="snow" transform="translate(83.000000, 1933.000000)">
                <circle id="Oval-2" cx="132" cy="140" r="1"/>
                <circle id="Oval-2" cx="161" cy="203" r="1"/>
                <circle id="Oval-2" cx="197" cy="138" r="1"/>
                <circle id="Oval-2" cx="75" cy="187" r="1"/>
                <circle id="Oval-2" cx="180" cy="269" r="1"/>
                <circle id="Oval-2" cx="283" cy="205" r="1"/>
                <circle id="Oval-2" cx="160" cy="342" r="1"/>
                <circle id="Oval-2" cx="278" cy="381" r="1"/>
                <circle id="Oval-2" cx="305" cy="340" r="1"/>
                <circle id="Oval-2" cx="180" cy="432" r="1"/>
                <circle id="Oval-2" cx="288" cy="471" r="1"/>
                <circle id="Oval-2" cx="321" cy="407" r="1"/>
                <circle id="Oval-2" cx="1" cy="260" r="1"/>
                <circle id="Oval-2" cx="60" cy="353" r="1"/>
                <circle id="Oval-2" cx="66" cy="258" r="1"/>
                <circle id="Oval-2" cx="4" cy="407" r="1"/>
                <circle id="Oval-2" cx="79" cy="439" r="1"/>
                <circle id="Oval-2" cx="112" cy="375" r="1"/>
                <circle id="Oval-2" cx="29" cy="512" r="1"/>
                <circle id="Oval-2" cx="107" cy="551" r="1"/>
                <circle id="Oval-2" cx="134" cy="510" r="1"/>
                <circle id="Oval-2" cx="79" cy="602" r="1"/>
                <circle id="Oval-2" cx="117" cy="701" r="1"/>
                <circle id="Oval-2" cx="150" cy="637" r="1"/>
                <circle id="Oval-2" cx="542" cy="20" r="1"/>
                <circle id="Oval-2" cx="571" cy="83" r="1"/>
                <circle id="Oval-2" cx="726" cy="1" r="1"/>
                <circle id="Oval-2" cx="374" cy="6" r="1"/>
                <circle id="Oval-2" cx="590" cy="149" r="1"/>
                <circle id="Oval-2" cx="849" cy="43" r="1"/>
                <circle id="Oval-2" cx="998" cy="19" r="1"/>
                <circle id="Oval-2" cx="1049" cy="73" r="1"/>
                <circle id="Oval-2" cx="570" cy="222" r="1"/>
                <circle id="Oval-2" cx="688" cy="261" r="1"/>
                <circle id="Oval-2" cx="715" cy="220" r="1"/>
                <circle id="Oval-2" cx="590" cy="312" r="1"/>
                <circle id="Oval-2" cx="698" cy="351" r="1"/>
                <circle id="Oval-2" cx="731" cy="287" r="1"/>
                <circle id="Oval-2" cx="411" cy="140" r="1"/>
                <circle id="Oval-2" cx="470" cy="233" r="1"/>
                <circle id="Oval-2" cx="476" cy="138" r="1"/>
                <circle id="Oval-2" cx="414" cy="287" r="1"/>
                <circle id="Oval-2" cx="489" cy="319" r="1"/>
                <circle id="Oval-2" cx="522" cy="255" r="1"/>
                <circle id="Oval-2" cx="439" cy="392" r="1"/>
                <circle id="Oval-2" cx="517" cy="431" r="1"/>
                <circle id="Oval-2" cx="544" cy="390" r="1"/>
                <circle id="Oval-2" cx="489" cy="482" r="1"/>
                <circle id="Oval-2" cx="527" cy="581" r="1"/>
                <circle id="Oval-2" cx="560" cy="517" r="1"/>
                <circle id="Oval-2" cx="952" cy="200" r="1"/>
                <circle id="Oval-2" cx="981" cy="263" r="1"/>
                <circle id="Oval-2" cx="1017" cy="198" r="1"/>
                <circle id="Oval-2" cx="895" cy="247" r="1"/>
                <circle id="Oval-2" cx="1000" cy="329" r="1"/>
                <circle id="Oval-2" cx="1103" cy="265" r="1"/>
                <circle id="Oval-2" cx="980" cy="402" r="1"/>
                <circle id="Oval-2" cx="1098" cy="441" r="1"/>
                <circle id="Oval-2" cx="1125" cy="400" r="1"/>
                <circle id="Oval-2" cx="1630" cy="522" r="1"/>
                <circle id="Oval-2" cx="1108" cy="531" r="1"/>
                <circle id="Oval-2" cx="1141" cy="467" r="1"/>
                <circle id="Oval-2" cx="821" cy="320" r="1"/>
                <circle id="Oval-2" cx="880" cy="413" r="1"/>
                <circle id="Oval-2" cx="886" cy="318" r="1"/>
                <circle id="Oval-2" cx="824" cy="467" r="1"/>
                <circle id="Oval-2" cx="899" cy="499" r="1"/>
                <circle id="Oval-2" cx="932" cy="435" r="1"/>
                <circle id="Oval-2" cx="849" cy="572" r="1"/>
                <circle id="Oval-2" cx="1557" cy="641" r="1"/>
                <circle id="Oval-2" cx="1584" cy="600" r="1"/>
                <circle id="Oval-2" cx="899" cy="662" r="1"/>
                <circle id="Oval-2" cx="937" cy="761" r="1"/>
                <circle id="Oval-2" cx="970" cy="697" r="1"/>
                <circle id="Oval-2" cx="1352" cy="10" r="1"/>
                <circle id="Oval-2" cx="1475" cy="82" r="1"/>
                <circle id="Oval-2" cx="1559" cy="59" r="1"/>
                <circle id="Oval-2" cx="1295" cy="57" r="1"/>
                <circle id="Oval-2" cx="1400" cy="139" r="1"/>
                <circle id="Oval-2" cx="1658" cy="41" r="1"/>
                <circle id="Oval-2" cx="1380" cy="212" r="1"/>
                <circle id="Oval-2" cx="1498" cy="251" r="1"/>
                <circle id="Oval-2" cx="1525" cy="210" r="1"/>
                <circle id="Oval-2" cx="1400" cy="302" r="1"/>
                <circle id="Oval-2" cx="1508" cy="341" r="1"/>
                <circle id="Oval-2" cx="1541" cy="277" r="1"/>
                <circle id="Oval-2" cx="1221" cy="130" r="1"/>
                <circle id="Oval-2" cx="1280" cy="223" r="1"/>
                <circle id="Oval-2" cx="1286" cy="128" r="1"/>
                <circle id="Oval-2" cx="1224" cy="277" r="1"/>
                <circle id="Oval-2" cx="1299" cy="309" r="1"/>
                <circle id="Oval-2" cx="1332" cy="245" r="1"/>
                <circle id="Oval-2" cx="1249" cy="382" r="1"/>
                <circle id="Oval-2" cx="1327" cy="421" r="1"/>
                <circle id="Oval-2" cx="1354" cy="380" r="1"/>
                <circle id="Oval-2" cx="1299" cy="472" r="1"/>
                <circle id="Oval-2" cx="1337" cy="571" r="1"/>
                <circle id="Oval-2" cx="1370" cy="507" r="1"/>
            </g>
        </g>
    </g>
</svg>